<?xml version="1.0" encoding="UTF-8"?><svg xmlns="http://www.w3.org/2000/svg" viewBox="0 0 92.41 92.41"><defs><style>.d{fill:#01363a;}.d,.e,.f{stroke-linecap:round;stroke-linejoin:round;}.d,.f{stroke:#01363a;stroke-width:6px;}.g,.f{fill:none;}.e{fill:#dc6f00;stroke:#dc6f00;stroke-width:3px;}</style></defs><g id="a"/><g id="b"><g id="c"><g><g><path class="f" d="M72.52,34.99c-7.86-1.1-13.99-7.24-15.1-15.1-.56-4-.94-8-1.19-11.99-10.53-.67-21.07-.31-31.6,1.14-8.1,1.12-14.45,7.47-15.57,15.57-2,14.53-1.98,29.05,.06,43.58,1.1,7.86,7.24,13.99,15.1,15.1,14.67,2.06,29.33,2.06,44,0,7.86-1.1,13.99-7.24,15.1-15.1,1.5-10.67,1.89-21.34,1.2-32.01-4-.26-8-.63-12-1.19Z"/><path class="d" d="M84.51,36.18c.34-9.31-18.98-28.63-28.29-28.28,.26,4,.63,8,1.19,11.99,1.1,7.86,7.24,13.99,15.1,15.1,4,.56,8,.94,12,1.19Z"/><path class="e" d="M46.95,37.39H28.58c-1.01,0-1.84-.82-1.84-1.84s.82-1.84,1.84-1.84h18.37c1.01,0,1.84,.82,1.84,1.84s-.82,1.84-1.84,1.84Z"/><path class="e" d="M61.65,59.43H28.58c-1.01,0-1.84-.82-1.84-1.84s.82-1.84,1.84-1.84H61.65c1.01,0,1.84,.82,1.84,1.84s-.82,1.84-1.84,1.84Z"/></g><rect class="g" x="0" width="92.41" height="92.41"/></g></g></g></svg>