<?xml version="1.0" encoding="UTF-8"?><svg xmlns="http://www.w3.org/2000/svg" viewBox="0 0 104.17 104.17"><defs><style>.d{fill:#fff;}.e{fill:#04293a;}</style></defs><g id="a"/><g id="b"><g id="c"><circle class="d" cx="52.09" cy="52.09" r="52.09"/><g><path class="e" d="M78.88,35.53l-16.4,13.62,16.32,16.84c.16-10.15,.06-20.31,.08-30.46Z"/><path class="e" d="M57.85,53l-4.14,3.44c-.55,.46-1.24,.69-1.92,.69s-1.31-.21-1.85-.64l-4.98-3.91-16,17.6c.53,.1,1.06,.17,1.58,.17,7.17,.02,14.34,.01,21.51,.01,7.17,0,14.34,0,21.51-.01,.35,0,.7-.02,1.06-.06l-16.77-17.3Zm-1.48,11.29h-8.55c-.83,0-1.5-.67-1.5-1.5s.67-1.5,1.5-1.5h8.55c.83,0,1.5,.67,1.5,1.5s-.67,1.5-1.5,1.5Z"/><path class="e" d="M51.73,50.28l23.64-19.64c-.52-.13-1.04-.21-1.56-.21-7.29-.04-14.59-.02-21.88-.02v.06c-7.29,0-14.59-.03-21.88,.04-.89,0-1.85,.29-2.66,.7l24.34,19.09Z"/><path class="e" d="M25.28,37.16c0,9.38,0,18.76,0,28.14l14.93-16.42-14.94-11.72Z"/></g></g></g></svg>