<?xml version="1.0" encoding="UTF-8"?><svg xmlns="http://www.w3.org/2000/svg" viewBox="0 0 197.38 197.38"><defs><style>.d{fill:#04293a;}.e{fill:none;stroke:#ffa141;stroke-linecap:round;stroke-linejoin:round;stroke-width:3px;}.f{fill:#d8efff;}.g{fill:#ffa141;stroke:#04293a;stroke-miterlimit:10;stroke-width:2px;}</style></defs><g id="a"/><g id="b"><g id="c"><g><g><circle class="f" cx="98.69" cy="98.69" r="98.69"/><g><g><path class="g" d="M166.84,138.5c1.06-1.1,1.95-2.37,2.18-4.01,1.41-10.31-25.67-21.61-34.23-25.01-12.38,6.01-32.99,14-59.48,15.32-17.35,.86-32.05-1.4-42.88-3.97,13.71,10.72,26.32,16.86,35.2,20.45,45.46,18.36,88.54,8.3,99.22-2.78Z"/><path class="g" d="M85.57,45.95c-8.68,0-9.82,5.56-9.3,8.34,7.23,1.85,22.01,4.45,23.25,0,1.55-5.56-3.1-8.34-13.95-8.34Z"/></g><path class="d" d="M77.59,54.26c-45.48,.96-51.44,43.5-48.73,64.66,41.15,22.99,94.75,6.39,116.41-4.79,1.8-5.59,4.33-19.4,0-29.93-5.41-13.17-10.83-31.13-67.68-29.93Z"/></g></g><path class="e" d="M76.16,55.91c-6.01,7.74-10.89,13.97-14.95,18.78-1.27,1.5-3.73,4.38-4.45,8.68-.56,3.33,.18,5.99,.38,6.75,1.17,4.53,1.89,14.93,.81,38.65"/></g></g></g></svg>