<?xml version="1.0" encoding="UTF-8"?><svg xmlns="http://www.w3.org/2000/svg" viewBox="0 0 537.37 91.17"><defs><style>.d{fill:#01363a;}</style></defs><g id="a"/><g id="b"><g id="c"><g><g><path class="d" d="M199.19,48.95v20.66h-9.39l-.13-18.58c0-8.23-3.36-19.14-15.45-20.44-11.95-1.29-18.5,8.99-19.43,16.41v22.62h-9.38V13.31l9.38,1.73v17.86c5.9-3.38,13.15-4.32,17.47-4.32,8.19,0,26.94,3.39,26.94,20.37Z"/><path class="d" d="M263.34,49.05v20.66h-7.08l-2.31-4.35-.02-1.49c-9.22,3.71-44.48,16.6-44.48-3.17s36.6-8.91,44.38-6.25l-.02-3.33c0-8.23-3.36-19.14-15.46-20.44-11.95-1.29-18.5,8.99-19.43,16.41h-9.38c1.39-15.29,18.99-18.41,26.85-18.41s26.94,3.39,26.94,20.37Zm-9.42,13.08l-.06-5.7c-7.47-1.85-36.55-8.26-36.55,4.27s29.81,3.66,36.61,1.43Z"/><path class="d" d="M327.89,48.95v20.66h-9.39l-.13-18.58c0-8.23-3.36-19.14-15.45-20.44-11.95-1.29-18.5,8.99-19.43,16.41v22.62h-9.38V28.59h8.4l.81,4.42c5.92-3.46,13.28-4.42,17.64-4.42,8.19,0,26.94,3.38,26.94,20.37Z"/><path class="d" d="M386.79,67.15l-2.42-6.16c-6.87,3.72-45.63,23.14-45.63-12.45s40.7-16.66,45.39-14.22V10.85l9.39,1.73v54.57h-6.73Zm-2.66-7.81v-23.23c-5.34-2.43-37.54-15.94-37.54,12.43s33.28,12.96,37.54,10.8Z"/><path class="d" d="M537.37,28.59l-23.62,41.02h-12.03l-4.9-11.72-6.75,11.72h-12.03l-17.15-41.02h10.36c-3.51,13.55,.76,24.04,11.61,35.56l9.6-16.68-7.89-18.88h10.36c-3.5,13.51,.93,24.18,11.62,35.55l20.47-35.55h10.36Z"/><path class="d" d="M430.23,29.77c-8.19,0-26.94,3.39-26.94,20.37s14.81,20.66,26.94,20.66,26.94-3.68,26.94-20.66-18.75-20.37-26.94-20.37Zm0,39.34c-8.33,0-18.51-3.37-18.51-18.96s12.88-18.69,18.51-18.69,18.51,3.11,18.51,18.69-10.18,18.96-18.51,18.96Z"/></g><path class="d" d="M59.87,0C41.67,0,0,7.52,0,45.26s32.91,45.91,59.87,45.91,59.86-8.17,59.86-45.91S78.05,0,59.87,0Zm0,87.42c-4.41,0-9.06-.43-13.58-1.55-.71-.18-.59-1.23,.15-1.23h.05c5.98,0,12.03-1.48,17.52-4.39,6.72-3.56,12.08-8.85,15.64-15.31,.84-1.52,2.97-1.66,3.95-.22l4.06,5.93c.52,.76,1.71,.24,1.51-.66l-2.12-9.46-2.15-9.59c-.47-2.1-2.79-3.21-4.72-2.25l-8.8,4.37-8.54,4.25c-.83,.41-.47,1.67,.45,1.59l7.59-.72c1.84-.17,3.16,1.8,2.25,3.41-2.88,5.13-7.18,9.34-12.55,12.18-7.17,3.8-15.49,4.58-22.82,2.14-.33-.11-.66-.23-.99-.35-10.06-3.77-16.79-13.24-17.75-23.94-.18-2.01-.27-4.12-.27-6.35C18.74,10.65,47.37,3.75,59.87,3.75c3.06,0,7.09,.42,11.44,1.55,2.01,.53,1.79,3.47-.27,3.7-4.92,.55-9.78,2.16-14.19,4.78-6.31,3.75-11.19,9.15-14.22,15.6-.65,1.39-2.49,1.7-3.56,.59-1.8-1.88-3.59-3.77-5.39-5.65-.64-.67-1.73,.04-1.39,.89l3.62,8.99,3.56,8.84c.86,2.14,3.5,2.9,5.37,1.56l7.74-5.57,7.74-5.57c.76-.54,.2-1.73-.7-1.49l-6.92,1.82c-1.87,.49-3.41-1.52-2.45-3.2,2.43-4.29,5.96-7.9,10.35-10.51,6.48-3.85,14.16-4.96,21.06-3.05,4.36,1.21,8.2,3.5,11.31,6.52,4.66,4.53,7.35,10.71,7.86,17.18,.12,1.46,.18,2.98,.18,4.56,0,34.64-22.61,42.13-41.13,42.13Z"/></g></g></g></svg>