<?xml version="1.0" encoding="UTF-8"?><svg xmlns="http://www.w3.org/2000/svg" viewBox="0 0 53.62 53.62"><defs><style>.d{fill:#04293a;}</style></defs><g id="a"/><g id="b"><g id="c"><g><path class="d" d="M53.6,15.85c0-.88-.04-1.77-.19-2.64C52.09,5.42,45.69,.02,37.78,0,30.46,0,23.13,0,15.8,.01c-.86,0-1.73,.04-2.57,.18C5.46,1.49,.02,7.93,0,15.81c0,7.33,0,14.66,0,21.98,0,.88,.04,1.77,.19,2.64,1.38,7.81,7.74,13.16,15.66,13.17,7.3,0,14.61,0,21.91,0,.88,0,1.77-.04,2.64-.19,7.84-1.36,13.18-7.75,13.19-15.72,0-3.63,0-7.26,0-10.89s.01-7.3,0-10.96Zm-26.8,26.96c-8.84,0-16-7.16-16-16S17.97,10.81,26.81,10.81s16,7.16,16,16-7.16,16-16,16ZM43.36,14.4c-1.74,0-3.15-1.41-3.15-3.15,0-.03,0-.05,0-.07,0-.02,0-.03,0-.05,0-.16,.02-.31,.06-.46,.27-1.46,1.55-2.57,3.09-2.57,1.74,0,3.15,1.41,3.15,3.15s-1.41,3.15-3.15,3.15Z"/><path class="d" d="M26.84,17.87c4.91,.01,8.91,4.03,8.9,8.95,0,4.94-4.05,8.94-9.01,8.92-4.9-.03-8.88-4.06-8.86-8.99,.02-4.91,4.04-8.89,8.97-8.88Z"/></g></g></g></svg>