<?xml version="1.0" encoding="UTF-8"?><svg xmlns="http://www.w3.org/2000/svg" viewBox="0 0 104.17 104.17"><defs><style>.d{fill:#fff;}.e{fill:#04293a;}</style></defs><g id="a"/><g id="b"><g id="c"><circle class="d" cx="52.09" cy="52.09" r="52.09"/><g><path class="e" d="M78.88,41.13c0-.88-.04-1.77-.19-2.64-1.33-7.79-7.73-13.19-15.63-13.21-7.33,0-14.66,0-21.98,0-.86,0-1.73,.04-2.57,.18-7.76,1.3-13.21,7.74-13.22,15.62,0,7.33,0,14.66,0,21.98,0,.88,.04,1.77,.19,2.64,1.38,7.81,7.74,13.16,15.66,13.17,7.3,0,14.61,0,21.91,0,.88,0,1.77-.04,2.64-.19,7.84-1.36,13.18-7.75,13.19-15.72,0-3.63,0-7.26,0-10.89s.01-7.3,0-10.96Zm-26.8,26.96c-8.84,0-16-7.16-16-16s7.16-16,16-16,16,7.16,16,16-7.16,16-16,16Zm16.55-28.4c-1.74,0-3.15-1.41-3.15-3.15,0-.03,0-.05,0-.07,0-.02,0-.03,0-.05,0-.16,.02-.31,.06-.46,.27-1.46,1.55-2.57,3.09-2.57,1.74,0,3.15,1.41,3.15,3.15s-1.41,3.15-3.15,3.15Z"/><path class="e" d="M52.12,43.15c4.91,.01,8.91,4.03,8.9,8.95,0,4.94-4.05,8.94-9.01,8.92-4.9-.03-8.88-4.06-8.86-8.99,.02-4.91,4.04-8.89,8.97-8.88Z"/></g></g></g></svg>