<?xml version="1.0" encoding="UTF-8"?><svg xmlns="http://www.w3.org/2000/svg" viewBox="0 0 275.35 209.67"><defs><style>.d{fill:#01363a;}</style></defs><g id="a"/><g id="b"><g id="c"><path class="d" d="M137.68,0C95.84,0,0,17.3,0,104.09s75.7,105.58,137.68,105.58,137.68-18.79,137.68-105.58S179.51,0,137.68,0Zm0,201.05c-10.15,0-20.84-.98-31.23-3.56-1.64-.41-1.36-2.83,.34-2.83h.13c13.76,0,27.66-3.41,40.28-10.09,15.45-8.18,27.78-20.36,35.96-35.21,1.93-3.5,6.83-3.81,9.09-.51l9.33,13.64c1.2,1.76,3.94,.56,3.48-1.51l-4.87-21.75-4.94-22.05c-1.08-4.84-6.42-7.38-10.86-5.17l-20.23,10.06-19.64,9.77c-1.92,.95-1.09,3.85,1.04,3.65l17.46-1.65c4.24-.4,7.26,4.13,5.17,7.85-6.63,11.8-16.52,21.47-28.86,28-16.5,8.73-35.63,10.54-52.48,4.93-.77-.25-1.53-.52-2.28-.81-23.14-8.66-38.62-30.45-40.83-55.06-.41-4.62-.63-9.48-.63-14.61C43.09,24.49,108.94,8.61,137.68,8.61c7.04,0,16.32,.96,26.3,3.57,4.62,1.21,4.12,7.98-.62,8.51-11.32,1.26-22.49,4.97-32.62,11-14.5,8.63-25.73,21.05-32.7,35.89-1.51,3.2-5.74,3.92-8.18,1.36-4.13-4.33-8.27-8.66-12.4-12.99-1.47-1.54-3.98,.08-3.19,2.05l8.32,20.67,8.19,20.34c1.98,4.91,8.04,6.67,12.34,3.58l17.79-12.81,17.81-12.82c1.74-1.25,.45-3.98-1.62-3.43l-15.9,4.18c-4.31,1.13-7.84-3.49-5.65-7.36,5.6-9.87,13.7-18.18,23.79-24.18,14.9-8.86,32.56-11.42,48.44-7.01,10.02,2.78,18.85,8.04,26.01,14.99,10.72,10.41,16.9,24.62,18.07,39.52,.26,3.36,.4,6.86,.4,10.48,0,79.66-52.01,96.9-94.59,96.9Z"/></g></g></svg>