<?xml version="1.0" encoding="UTF-8"?><svg xmlns="http://www.w3.org/2000/svg" viewBox="0 0 92.41 92.41"><defs><style>.d,.e,.f{fill:none;}.e{stroke:#01363a;}.e,.f{stroke-linecap:round;stroke-linejoin:round;stroke-width:6px;}.f{stroke:#dc6f00;}</style></defs><g id="a"/><g id="b"><g id="c"><g><g><path class="e" d="M20.87,10.58c9.49-1.84,18.98-1.84,28.47,0,5.49,1.06,9.63,5.56,10.26,11.12,1.87,16.34,1.87,32.67,0,49.01-.64,5.55-4.77,10.05-10.26,11.12-9.49,1.84-18.98,1.84-28.47,0-5.49-1.06-9.63-5.56-10.26-11.12-1.87-16.34-1.87-32.67,0-49.01,.64-5.55,4.77-10.05,10.26-11.12Z"/><line class="f" x1="38.8" y1="46.2" x2="76.44" y2="46.2"/><polyline class="f" points="72.74 35.74 83.21 46.2 72.74 56.67"/></g><rect class="d" width="92.41" height="92.41"/></g></g></g></svg>