<?xml version="1.0" encoding="UTF-8"?><svg xmlns="http://www.w3.org/2000/svg" viewBox="0 0 53.62 39.98"><defs><style>.d{fill:#04293a;}</style></defs><g id="a"/><g id="b"><g id="c"><g><path class="d" d="M53.6,5.13l-16.4,13.62,16.32,16.84c.16-10.15,.06-20.31,.08-30.46Z"/><path class="d" d="M32.57,22.6l-4.14,3.44c-.55,.46-1.24,.69-1.92,.69s-1.31-.21-1.85-.64l-4.98-3.91L3.68,39.79c.53,.1,1.06,.17,1.58,.17,7.17,.02,14.34,.01,21.51,.01,7.17,0,14.34,0,21.51-.01,.35,0,.7-.02,1.06-.06l-16.77-17.3Zm-1.48,11.29h-8.55c-.83,0-1.5-.67-1.5-1.5s.67-1.5,1.5-1.5h8.55c.83,0,1.5,.67,1.5,1.5s-.67,1.5-1.5,1.5Z"/><path class="d" d="M26.46,19.88L50.1,.24c-.52-.13-1.04-.21-1.56-.21C41.25-.02,33.96,0,26.66,0V.06C19.37,.06,12.07,.03,4.78,.1c-.89,0-1.85,.29-2.66,.7L26.46,19.88Z"/><path class="d" d="M0,6.76C0,16.14,0,25.52,.01,34.9L14.95,18.48,0,6.76Z"/></g></g></g></svg>