<?xml version="1.0" encoding="UTF-8"?><svg xmlns="http://www.w3.org/2000/svg" viewBox="0 0 92.41 92.41"><defs><style>.d{fill:#dc6f00;stroke:#dc6f00;stroke-width:2px;}.d,.e{stroke-linecap:round;stroke-linejoin:round;}.e{fill:#01363a;stroke:#01363a;stroke-width:3px;}.f{fill:none;}</style></defs><g id="a"/><g id="b"><g id="c"><g><g><path class="e" d="M46.22,85.01c-5.5,0-10.92-1.17-16.01-3.48l-13.95,2.33c-2.16,.36-4.29-.32-5.84-1.87-1.55-1.55-2.23-3.67-1.87-5.83l2.32-13.95c-3.42-7.53-4.34-15.81-2.66-23.97,3.24-15.75,16.06-27.96,31.9-30.37h0c12.48-1.89,24.7,2.07,33.52,10.9,8.83,8.83,12.8,21.05,10.9,33.53-2.41,15.84-14.61,28.66-30.37,31.9-2.65,.55-5.32,.82-7.96,.82Z"/><circle class="d" cx="46.2" cy="46.21" r="3.53"/><circle class="d" cx="32.09" cy="46.21" r="3.53"/><circle class="d" cx="60.32" cy="46.21" r="3.53"/></g><rect class="f" x="0" width="92.41" height="92.41"/></g></g></g></svg>