<?xml version="1.0" encoding="UTF-8"?><svg xmlns="http://www.w3.org/2000/svg" viewBox="0 0 92.41 92.41"><defs><style>.d{fill:#dc6f00;stroke:#dc6f00;stroke-width:2px;}.d,.e{stroke-linecap:round;stroke-linejoin:round;}.e{fill:#01363a;stroke:#01363a;stroke-width:3px;}.f{fill:none;}</style></defs><g id="a"/><g id="b"><g id="c"><g><g><path class="e" d="M46.22,87c-5.78,0-11.49-1.23-16.83-3.66l-14.66,2.45c-2.27,.38-4.51-.34-6.14-1.97-1.63-1.63-2.34-3.86-1.97-6.13l2.44-14.66c-3.6-7.92-4.57-16.62-2.8-25.2C9.67,21.26,23.15,8.43,39.81,5.89h0c13.12-1.99,25.97,2.18,35.25,11.46,9.28,9.28,13.46,22.13,11.46,35.25-2.53,16.65-15.36,30.13-31.93,33.54-2.79,.58-5.59,.86-8.37,.86Zm-16.57-7.44c.27,0,.54,.06,.79,.18,7.33,3.45,15.42,4.41,23.4,2.77,15.05-3.1,26.71-15.34,29.01-30.47,1.82-11.94-1.98-23.63-10.42-32.07-8.44-8.44-20.13-12.24-32.06-10.42-15.12,2.3-27.37,13.96-30.47,29.01-1.64,7.98-.69,16.07,2.77,23.4,.16,.34,.21,.72,.15,1.09l-2.54,15.23c-.18,1.08,.16,2.13,.93,2.91,.77,.77,1.83,1.12,2.91,.93l15.23-2.54c.1-.02,.2-.03,.31-.03Z"/><circle class="d" cx="46.2" cy="46.21" r="3.71"/><circle class="d" cx="31.36" cy="46.21" r="3.71"/><circle class="d" cx="61.04" cy="46.21" r="3.71"/></g><rect class="f" x="0" width="92.41" height="92.41"/></g></g></g></svg>