<?xml version="1.0" encoding="UTF-8"?><svg xmlns="http://www.w3.org/2000/svg" viewBox="0 0 92.41 92.41"><defs><style>.d,.e{fill:none;}.e{stroke:#01363a;stroke-linecap:round;stroke-linejoin:round;stroke-width:6px;}</style></defs><g id="a"/><g id="b"><g id="c"><g><rect class="d" x="0" width="92.41" height="92.41"/><path class="e" d="M9.72,73.89c3.69-6.49,7.39-12.98,11.08-19.47-.05-9.29-.11-18.57-.16-27.86,3.17-10.94,12.62-18.82,23.58-19.78,12.18-1.07,23.89,6.61,28.01,18.68-.11,9.44-.21,18.89-.32,28.33,3.59,7.02,7.17,14.03,10.76,21.05-24.32-.32-48.64-.63-72.96-.95Zm25.01,.27c-.02,6.25,5.03,11.42,11.24,11.55,6.26,.13,11.56-4.93,11.71-11.24"/></g></g></g></svg>