<?xml version="1.0" encoding="UTF-8"?><svg xmlns="http://www.w3.org/2000/svg" viewBox="0 0 92.41 92.41"><defs><style>.d{fill:#dc6f00;stroke:#dc6f00;}.d,.e{stroke-linecap:round;stroke-linejoin:round;stroke-width:2px;}.f{fill:none;}.e{fill:#01363a;stroke:#01363a;}</style></defs><g id="a"/><g id="b"><g id="c"><g><g><path class="d" d="M46.2,42.73c-9.94,0-18.02-8.08-18.02-18.02S36.26,6.69,46.2,6.69s18.02,8.08,18.02,18.02-8.08,18.02-18.02,18.02Zm0-32.45c-7.96,0-14.43,6.47-14.43,14.43s6.47,14.43,14.43,14.43,14.43-6.47,14.43-14.43-6.47-14.43-14.43-14.43Z"/><path class="e" d="M46.19,85.72c-3.53,0-7.05-.26-10.55-.79-8.58-1.28-15.47-7.64-17.55-16.2-1.02-4.19-.3-8.31,1.9-11.61,2.14-3.2,5.37-5.29,9.1-5.88,11.35-1.78,22.86-1.78,34.2,0,3.74,.59,6.98,2.68,9.12,5.89,2.19,3.29,2.91,7.38,1.97,11.24-2.15,8.83-9.22,15.36-18.01,16.63-3.38,.49-6.78,.73-10.18,.73Zm-16.55-30.93c-2.73,.43-5.1,1.96-6.67,4.32-1.64,2.46-2.18,5.55-1.47,8.47,1.81,7.44,7.54,12.74,14.67,13.81,6.53,.97,13.16,.99,19.69,.05,7.33-1.06,13.23-6.52,15.03-13.92,.7-2.88,.17-5.94-1.47-8.4-1.58-2.36-3.95-3.9-6.69-4.33-10.98-1.72-22.11-1.72-33.09,0h0Zm-.28-1.78h0Z"/></g><rect class="f" x="0" width="92.41" height="92.41"/></g></g></g></svg>