<?xml version="1.0" encoding="UTF-8"?><svg xmlns="http://www.w3.org/2000/svg" viewBox="0 0 92.41 92.41"><defs><style>.d,.e,.f{fill:none;}.e{stroke:#01363a;}.e,.f{stroke-linecap:round;stroke-linejoin:round;stroke-width:6px;}.f{stroke:#dc6f00;}</style></defs><g id="a"/><g id="b"><g id="c"><g><g><path class="e" d="M80.76,40.52l3.71-2.14c.64-9.88-3.48-17.01-12.35-21.4l-3.71,2.14c-4.38,2.53-9.85-.63-9.85-5.69v-4.29c-8.24-5.49-16.47-5.49-24.71,0v4.29c0,5.06-5.47,8.22-9.85,5.69l-3.71-2.14c-8.87,4.39-12.99,11.52-12.35,21.4l3.71,2.14c4.38,2.53,4.38,8.85,0,11.38l-3.71,2.14c-.64,9.88,3.48,17.01,12.35,21.4l3.71-2.14c4.38-2.53,9.85,.63,9.85,5.69v4.29c8.24,5.49,16.47,5.49,24.71,0v-4.29c0-5.06,5.47-8.22,9.85-5.69l3.71,2.14c8.87-4.39,12.99-11.52,12.35-21.4l-3.71-2.14c-4.38-2.53-4.38-8.85,0-11.38Z"/><circle class="f" cx="46.2" cy="46.21" r="12.35"/></g><rect class="d" width="92.41" height="92.41"/></g></g></g></svg>